<svg width="32" height="33" viewBox="0 0 32 33" fill="none" xmlns="http://www.w3.org/2000/svg">
<path fill-rule="evenodd" clip-rule="evenodd" d="M6.77158 7.43043C11.832 2.37712 20.0582 2.43085 25.1496 7.52224C30.2432 12.6158 30.2948 20.8469 25.2349 25.9068C20.175 30.9667 11.9439 30.9151 6.85032 25.8215C3.83185 22.8031 2.58538 18.6851 3.12063 14.7802C3.19563 14.233 3.69999 13.8502 4.24716 13.9252C4.79433 14.0002 5.1771 14.5046 5.1021 15.0518C4.6488 18.3589 5.70376 21.8465 8.26453 24.4073C12.5905 28.7333 19.5552 28.7581 23.8207 24.4926C28.0861 20.2271 28.0614 13.2624 23.7354 8.93646C19.4116 4.61269 12.4518 4.58573 8.1858 8.84464L9.18273 8.84965C9.73501 8.85242 10.1805 9.30238 10.1777 9.85466C10.1749 10.4069 9.72496 10.8524 9.17268 10.8496L5.77861 10.8326C5.23026 10.8298 4.78641 10.386 4.78365 9.8376L4.76659 6.44353C4.76382 5.89126 5.20928 5.4413 5.76156 5.43852C6.31383 5.43575 6.76379 5.8812 6.76657 6.43348L6.77158 7.43043ZM15.9998 10.3384C16.5521 10.3384 16.9998 10.7861 16.9998 11.3384V16.2576L20.0403 19.298C20.4308 19.6885 20.4308 20.3217 20.0403 20.7122C19.6498 21.1027 19.0166 21.1027 18.6261 20.7122L14.9998 17.086V11.3384C14.9998 10.7861 15.4476 10.3384 15.9998 10.3384Z" fill="#282828"/>
</svg>
